<svg width="272" height="358" viewBox="0 0 272 358" fill="none" xmlns="http://www.w3.org/2000/svg">
<path d="M28.5134 91.828C28.5134 91.828 27.5281 84.325 28.1515 81.9302C28.8881 79.0986 33.8401 72.5798 32.1401 70.9312C29.8193 68.6807 22.4615 76.4619 22.4615 76.4619C22.4615 76.4619 17.0756 54.9827 14.7007 55.1088C10.9542 55.309 15.6228 76.8598 15.6228 76.8598C15.6228 76.8598 12.8487 71.6866 10.9426 72.845C9.33269 73.824 10.5111 78.6019 10.5111 78.6019C10.5111 78.6019 7.73184 74.7145 6.24818 75.6038C5.6068 75.9887 5.45742 77.1302 5.62742 78.8633C5.62742 78.8633 3.55132 76.0342 2.1707 77.1614C-0.537754 79.3729 6.27006 94.3203 6.27006 94.3203" fill="white"/>
<path d="M6.42312 94.6621C6.60858 94.5763 6.68842 94.3566 6.60471 94.1694C4.01732 88.4918 0.59024 78.9333 2.40102 77.4551C2.58648 77.3043 2.78481 77.2549 3.02694 77.2796C3.90915 77.3927 4.9897 78.6239 5.33099 79.0881C5.42887 79.2233 5.60273 79.2766 5.75857 79.2129C5.91311 79.1531 6.00841 78.9971 5.99295 78.832C5.83068 77.1782 5.98008 76.2018 6.436 75.9275C7.33753 75.3918 9.36984 77.6463 10.2121 78.8255C10.3152 78.9685 10.5058 79.0205 10.6655 78.9437C10.8252 78.8696 10.9102 78.6903 10.8677 78.5174C10.4375 76.7726 10.1297 73.7771 11.1317 73.1686C11.3339 73.0451 11.558 73.0244 11.8143 73.092C13.1305 73.4547 14.7764 76.0666 15.2993 77.0417C15.3869 77.2029 15.5814 77.2744 15.7514 77.2133C15.9227 77.1483 16.0206 76.9663 15.9819 76.7856C14.8898 71.7476 12.4531 58.1523 14.2548 55.7653C14.4364 55.5261 14.6064 55.491 14.7198 55.4845C15.9935 55.4234 19.5494 66.369 22.1046 76.558C22.1381 76.688 22.2385 76.7908 22.3673 76.8259C22.4974 76.8623 22.6352 76.8207 22.7266 76.7232C22.7807 76.666 28.2092 70.961 31.0014 70.8999C31.3942 70.8986 31.6646 70.9923 31.8849 71.2042C32.7774 72.0701 31.0864 75.2007 29.7276 77.7165C28.8763 79.2974 28.0688 80.7899 27.7958 81.8417C27.1622 84.2782 28.1088 91.5718 28.15 91.8812C28.1757 92.0827 28.3509 92.231 28.5621 92.1997C28.763 92.1724 28.9047 91.9865 28.8776 91.7837C28.8686 91.7096 27.9079 84.3276 28.508 82.0303C28.7579 81.0656 29.5422 79.6107 30.3742 78.0727C32.0047 75.0512 33.6905 71.927 32.3936 70.6685C32.0317 70.3162 31.55 70.1381 30.9859 70.1576C28.3728 70.2148 24.0738 74.3128 22.6558 75.7377C21.2043 70.0107 17.0547 54.6537 14.6811 54.7434C14.287 54.7655 13.9367 54.9631 13.6701 55.3155C11.7383 57.8741 13.8929 70.0679 14.8537 74.9459C14.0951 73.8759 13.0378 72.6603 12.0074 72.3769C11.5554 72.2508 11.1291 72.3041 10.7517 72.5329C9.53081 73.274 9.63771 75.6298 9.86953 77.2172C8.84694 76.0614 7.2242 74.5949 6.05994 75.2892C5.45463 75.6532 5.17643 76.4463 5.19446 77.8088C4.65869 77.2653 3.88982 76.6426 3.12094 76.5438C2.67533 76.4853 2.27866 76.5983 1.93995 76.8766C-0.908886 79.2038 5.22665 92.9239 5.935 94.4801C6.02129 94.6673 6.24024 94.7454 6.42312 94.6621Z" fill="black"/>
<path d="M203.902 223.297L173.938 248.082L159.482 218.894C159.482 218.894 193.294 207.456 203.902 223.297Z" fill="black"/>
<path d="M164.287 219.176L160.055 280.782L155.775 343.009L150.498 419.816L92.9594 415.023C92.9684 414.881 97.7388 334.816 97.7478 334.654L104.892 214.904L164.287 219.176Z" fill="white"/>
<path d="M163.895 219.524L150.157 419.42L93.3477 414.687L105.235 215.305L163.895 219.524ZM150.498 420.191C150.695 420.191 150.851 420.037 150.865 419.847L164.654 219.207C164.666 219.002 164.516 218.826 164.312 218.811L104.917 214.539C104.827 214.518 104.722 214.565 104.649 214.629C104.574 214.695 104.529 214.787 104.524 214.886L92.5917 415.004C92.5801 415.205 92.7295 415.38 92.9292 415.397C148.939 420.063 54.4455 412.19 150.498 420.191Z" fill="black"/>
<path d="M128.624 237.074L122.781 400.945L128.624 237.074Z" fill="white"/>
<path d="M160.056 280.784L155.776 343.012C141.351 307.399 135.664 262.593 134.55 252.758C134.405 251.485 134.335 250.794 134.335 250.794L160.056 280.784Z" fill="black"/>
<path d="M254.191 371.104L214.878 408.906C214.878 408.906 166.838 358.832 144.138 291.575C139.241 277.052 135.519 261.723 133.72 245.92C132.812 238.028 132.401 230.017 132.548 221.938L191.679 216.355C192.527 219.628 204.758 269.746 213.588 300.916C218.162 316.374 225.686 330.816 233.025 342.546C243.813 359.77 254.191 371.104 254.191 371.104Z" fill="white"/>
<path d="M253.676 371.086L214.888 408.381C211.099 404.338 166.053 355.36 144.484 291.454C139.262 275.968 135.763 260.633 134.084 245.877C133.177 238.002 132.782 230.064 132.908 222.277L191.397 216.754C208.311 285.113 213.083 300.448 213.232 301.017C217.178 314.351 223.731 328.389 232.712 342.743C242.487 358.35 252.044 369.258 253.676 371.086ZM215.129 409.175L254.443 371.375C254.589 371.233 254.596 371.003 254.46 370.853C254.356 370.739 243.979 359.342 233.334 342.347C218.344 318.39 214.372 301.857 213.832 300.447C209.102 284.635 195.978 232.273 192.034 216.264C191.99 216.086 191.816 215.977 191.643 215.985L132.513 221.569C132.326 221.587 132.182 221.743 132.179 221.931C132.033 229.858 132.43 237.942 133.354 245.963C135.039 260.77 138.549 276.157 143.788 291.693C166.255 358.262 214.131 408.663 214.612 409.164C214.753 409.313 214.987 409.313 215.129 409.175Z" fill="black"/>
<path d="M163.604 229.077C163.604 229.077 184.446 332.28 224.055 378.816L163.604 229.077Z" fill="white"/>
<path d="M11.0895 141.51C22.1178 155.999 39.9243 163.733 58.5293 164.256C63.015 164.395 67.6154 164.109 72.2273 163.398C70.0946 199.888 77.5644 231.32 102.913 248.086C102.913 248.086 141.507 232.963 171.688 225.753C179.703 223.843 187.13 222.497 193.065 222.136C197.729 221.839 201.48 222.158 203.906 223.303C203.906 223.303 203.959 217.661 203.339 208.807C202.814 201.351 201.784 191.627 199.841 181.075C192.824 143.174 173.736 94.8076 121.853 103.938C111.895 105.688 87.9011 118.541 80.0436 122.835C71.0721 125.836 32.2252 136.176 34.9568 89.2612L1.83464 90.6394C-2.72452 111.679 1.52943 128.975 11.0895 141.51Z" fill="#594170"/>
<path d="M81.8887 132.074L72.2243 163.405C67.6123 164.115 63.0197 164.401 58.5339 164.263L81.8887 132.074Z" fill="black"/>
<path d="M43.4782 175.44C42.1929 198.743 61.7728 222.208 87.2114 227.849C112.656 233.491 134.321 219.172 135.608 195.869C136.895 172.56 117.315 149.094 91.8697 143.453C66.4311 137.812 44.7648 152.132 43.4782 175.44Z" fill="white"/>
<path d="M80.9856 142.611C84.5157 142.611 88.1399 143.009 91.7911 143.819C117.025 149.414 136.516 172.755 135.24 195.85C133.938 219.449 111.912 232.952 87.2911 227.49C62.0599 221.897 42.5702 198.557 43.8452 175.465C44.4106 165.237 49.0289 156.301 56.8516 150.306C63.4444 145.251 71.8956 142.611 80.9856 142.611ZM135.975 195.892C137.269 172.448 117.519 148.763 91.9482 143.093C78.6867 140.151 65.7317 142.566 56.406 149.715C48.4095 155.843 43.688 164.975 43.1111 175.423C41.818 198.864 61.5654 222.547 87.1327 228.216C112.261 233.789 134.65 219.897 135.975 195.892Z" fill="black"/>
<path d="M48.6181 171.838C47.3315 195.142 66.9128 218.606 92.3513 224.247C117.795 229.89 139.461 215.57 140.747 192.267C142.033 168.959 122.453 145.493 97.0096 139.852C71.5698 134.211 49.9047 148.53 48.6181 171.838Z" fill="white"/>
<path d="M86.1322 139.006C89.6623 139.006 93.2865 139.404 96.9377 140.214C122.17 145.81 141.663 169.151 140.387 192.247C139.082 215.904 116.985 229.336 92.4365 223.887C67.2065 218.293 47.7167 194.953 48.993 171.859C49.5571 161.632 54.1755 152.698 61.997 146.702C68.591 141.648 77.0422 139.006 86.1322 139.006ZM141.122 192.289C142.415 168.844 122.665 145.16 97.0948 139.49C83.8294 136.548 70.8783 138.961 61.5526 146.11C53.5561 152.24 48.8346 161.37 48.2576 171.817C46.9646 195.26 66.7119 218.943 92.2793 224.611C117.36 230.174 139.794 216.333 141.122 192.289Z" fill="black"/>
<path d="M59.7699 174.312C58.795 191.976 73.6354 209.761 92.9178 214.037C112.204 218.313 128.626 207.46 129.601 189.797C130.576 172.129 115.734 154.344 96.4493 150.066C77.1669 145.792 60.7449 156.645 59.7699 174.312Z" fill="#F1C753"/>
<path d="M162.108 166.136C167.651 175.626 173.124 193.064 141.334 196.402L139.148 232.254C203.615 236.087 227.732 168.668 171.934 118.343C182.267 140.629 177.416 155.825 162.108 166.136Z" fill="#594170"/>
<path d="M139.23 231.254C139.422 231.254 139.584 231.102 139.597 230.905L141.679 196.741C154.336 195.364 162.292 191.585 165.332 185.503C168.575 179.01 165.539 171.287 162.422 165.95C162.318 165.775 162.091 165.716 161.919 165.819C161.744 165.924 161.686 166.152 161.789 166.327C164.814 171.505 167.768 178.975 164.675 185.169C161.732 191.06 153.866 194.715 141.293 196.036C141.115 196.055 140.975 196.2 140.965 196.382L138.862 230.86C138.85 231.065 139.003 231.241 139.207 231.254C139.214 231.254 139.222 231.254 139.23 231.254Z" fill="black"/>
<path d="M139.723 224.754L140.812 206.209C140.812 206.209 125.409 193.989 122.491 196.586C120.6 198.267 125.253 202.387 127.989 205.744C123.228 207.819 102.222 202.899 101.533 206.299C101.247 207.708 104.359 209.476 108.084 210.034C106.24 210.173 104.762 210.371 104.209 211.016C102.8 212.642 105.729 214.029 108.959 214.854C107.712 215.046 106.753 215.32 106.369 215.86C105.371 217.276 107.72 218.685 110.895 219.507C110.112 219.7 109.513 219.953 109.215 220.337C106.803 223.451 139.723 224.754 139.723 224.754Z" fill="white"/>
<path d="M140.435 206.381L139.379 224.368C128.102 223.908 110.307 222.522 109.465 220.689C109.456 220.669 109.444 220.645 109.505 220.567C109.72 220.29 110.204 220.061 110.984 219.869C111.353 219.778 111.357 219.245 110.987 219.148C108.553 218.518 106.852 217.606 106.549 216.769C106.464 216.534 106.503 216.313 106.67 216.076C107.023 215.58 108.177 215.349 109.016 215.221C109.189 215.193 109.32 215.048 109.327 214.871C109.336 214.695 109.22 214.537 109.05 214.494C106.298 213.792 104.502 212.877 104.245 212.045C104.195 211.885 104.167 211.631 104.486 211.261C104.979 210.686 106.618 210.518 108.114 210.405C108.301 210.391 108.448 210.237 108.454 210.049C108.461 209.86 108.325 209.695 108.141 209.668C105.051 209.205 102.756 207.986 102.088 207.021C101.921 206.78 101.856 206.562 101.895 206.373C102.201 204.864 109.085 205.509 114.617 206.026C120.143 206.545 125.856 207.078 128.134 206.085C128.36 205.986 128.428 205.697 128.274 205.508C126.061 202.796 122.322 199.284 122.421 197.508C122.437 197.245 122.536 197.041 122.734 196.864C124.68 195.13 134.555 201.737 140.435 206.381ZM139.724 225.125C139.917 225.125 140.08 224.973 140.091 224.775L141.181 206.232C141.189 206.109 141.136 205.992 141.041 205.917C139.44 204.648 125.311 193.588 122.249 196.307C121.902 196.615 121.714 197.005 121.687 197.466C121.57 199.56 124.937 202.689 127.367 205.57C124.975 206.247 119.75 205.761 114.686 205.287C106.578 204.527 101.592 204.17 101.174 206.224C101.094 206.62 101.199 207.031 101.485 207.446C102.155 208.411 103.816 209.331 105.841 209.923C104.93 210.093 104.297 210.348 103.932 210.773C103.413 211.372 103.434 211.916 103.543 212.266C103.891 213.39 105.641 214.227 107.439 214.805C106.758 215.017 106.326 215.286 106.071 215.643C105.762 216.081 105.69 216.559 105.859 217.024C106.292 218.22 108.216 219.059 109.672 219.536C109.059 219.836 108.512 220.38 108.798 221.001C110.09 223.813 134.775 224.93 139.71 225.125C139.715 225.125 139.72 225.125 139.724 225.125Z" fill="black"/>
<path d="M108.084 210.035C108.084 210.035 113.039 210.882 118.501 210.766L108.084 210.035Z" fill="white"/>
<path d="M118.505 211.139C118.708 211.135 118.869 210.964 118.865 210.76C118.861 210.555 118.703 210.401 118.49 210.396C113.112 210.509 108.192 209.678 108.142 209.671C107.933 209.63 107.752 209.773 107.718 209.974C107.685 210.176 107.819 210.368 108.02 210.401C110.323 210.807 114.741 211.218 118.505 211.139Z" fill="black"/>
<path d="M108.724 214.828C108.724 214.828 113.677 215.674 119.141 215.56L108.724 214.828Z" fill="white"/>
<path d="M118.121 215.945C118.461 215.945 118.805 215.941 119.15 215.934C119.354 215.93 119.515 215.759 119.51 215.555C119.506 215.35 119.313 215.193 119.136 215.193C113.76 215.306 108.837 214.474 108.788 214.467C108.575 214.428 108.398 214.568 108.364 214.77C108.331 214.972 108.465 215.164 108.664 215.198C108.712 215.206 113.101 215.945 118.121 215.945Z" fill="black"/>
<path d="M110.744 219.488C110.744 219.488 115.698 220.335 121.16 220.22L110.744 219.488Z" fill="white"/>
<path d="M121.169 220.596C121.372 220.591 121.533 220.422 121.529 220.218C121.525 220.012 121.332 219.886 121.154 219.854C115.777 219.973 110.856 219.136 110.806 219.128C110.595 219.093 110.416 219.231 110.382 219.431C110.349 219.634 110.483 219.825 110.684 219.859C112.987 220.263 117.405 220.674 121.169 220.596Z" fill="black"/>
<path d="M152.319 228.417L157.229 198.57C157.261 198.367 157.126 198.177 156.926 198.142C156.716 198.104 156.537 198.246 156.502 198.448L151.594 228.294C151.561 228.497 151.696 228.687 151.897 228.722C152.102 228.753 152.286 228.616 152.319 228.417Z" fill="black"/>
<path d="M149.962 203.509C149.962 204.595 149.092 205.473 148.017 205.473C146.942 205.473 146.072 204.595 146.072 203.509C146.072 202.434 146.942 201.546 148.017 201.546C149.092 201.546 149.962 202.434 149.962 203.509Z" fill="white"/>
<path d="M3.21129 108.941L32.2895 97.8509C32.4801 97.7794 32.5754 97.5662 32.5033 97.3725C32.4311 97.1827 32.2187 97.0825 32.0293 97.158L2.95115 108.247C2.76183 108.319 2.66652 108.533 2.73736 108.725C2.81077 108.919 3.02584 109.012 3.21129 108.941Z" fill="black"/>
<path d="M8.68945 98.5133C8.68945 99.5443 7.86114 100.387 6.83443 100.387C5.81289 100.387 4.97813 99.5443 4.97813 98.5133C4.97813 97.4771 5.81289 96.6411 6.83443 96.6411C7.86114 96.6411 8.68945 97.4771 8.68945 98.5133Z" fill="white"/>
<path d="M203.098 179.695C203.289 179.695 203.45 179.547 203.465 179.352C203.48 179.148 203.329 178.97 203.126 178.954C196.556 178.449 191.409 172.835 191.409 166.174C191.409 161.374 194.028 157.012 198.243 154.793C198.423 154.698 198.492 154.474 198.399 154.292C198.305 154.11 198.082 154.043 197.902 154.135C193.444 156.483 190.674 161.097 190.674 166.174C190.674 173.219 196.12 179.158 203.071 179.694C203.08 179.695 203.089 179.695 203.098 179.695Z" fill="black"/>
<path d="M5.09446 86.2882C6.56524 86.0281 6.72752 84.143 6.64381 82.6465C7.3367 83.6645 8.2743 84.273 9.45659 84.0506C10.1946 83.9128 10.7368 83.5358 11.0652 82.9351C11.9551 81.3087 10.9003 78.5824 10.8552 78.4667C10.7805 78.2768 10.5668 78.1845 10.3787 78.2586C10.1894 78.334 10.0967 78.5499 10.1727 78.741C10.1817 78.7657 11.145 81.258 10.4212 82.5763C10.201 82.9807 9.84038 83.2238 9.32264 83.3213C7.6986 83.6307 6.75716 81.6467 6.28707 80.0489C6.13896 79.3299 6.00114 78.8255 5.98311 78.7631C5.93159 78.5746 5.74743 78.4523 5.55038 78.5017C5.36106 78.5433 5.23614 78.728 5.26576 78.923C5.27606 78.9789 5.36622 79.5327 5.58001 80.2595C5.87494 81.7273 6.42101 85.2987 4.96698 85.5575C3.89931 85.7525 3.10338 84.2652 2.82519 83.6177C2.74277 83.4292 2.52898 83.346 2.34095 83.4253C2.15549 83.5072 2.06919 83.7256 2.15033 83.9141C2.71185 85.2195 3.71512 86.5261 5.09446 86.2882Z" fill="black"/>
<path d="M13.8125 82.0703C14.7476 82.0703 15.604 81.731 16.0625 80.8911C16.9525 79.266 15.8964 76.5383 15.8513 76.4239C15.7766 76.2328 15.5628 76.1418 15.3748 76.2159C15.1855 76.2913 15.094 76.5071 15.1687 76.6969C15.1777 76.7216 16.1411 79.2153 15.4186 80.5336C15.197 80.9366 14.8364 81.1811 14.3187 81.2786C11.7957 81.7505 10.9045 78.5951 10.8684 78.4599C10.8169 78.2623 10.6095 78.1505 10.4189 78.1973C10.2232 78.2519 10.1073 78.4547 10.1588 78.6523C10.4898 79.9043 11.6592 82.069 13.8125 82.0703Z" fill="black"/>
<path d="M22.4609 76.4641C22.4609 76.4641 19.0974 79.9978 21.1843 83.7383L22.4609 76.4641Z" fill="white"/>
<path d="M21.3666 84.0647C21.5431 83.9646 21.6062 83.7397 21.5057 83.5603C19.5773 80.1007 22.696 76.7581 22.7269 76.7256C22.8687 76.5774 22.8635 76.3433 22.7166 76.2016C22.5711 76.0586 22.3379 76.0625 22.1975 76.212C22.1614 76.2484 18.6704 79.9889 20.8655 83.9243C20.966 84.1063 21.1953 84.1648 21.3666 84.0647Z" fill="black"/>
<path d="M119.123 92.4862C119.123 92.4862 113.45 90.3033 112.643 88.5819C111.433 86.0025 114.316 77.2904 114.316 77.2904C114.316 77.2904 111.558 76.9368 112.426 74.3066C113.227 71.8819 117.808 72.8258 117.808 72.8258C117.808 72.8258 125.876 58.2164 129.367 59.0355C136.791 60.7764 139.507 88.0541 139.507 88.0541C137.098 93.2286 136.054 98.2106 137.178 102.887L116.054 116.055L119.123 92.4862Z" fill="white"/>
<path d="M136.756 102.712L116.518 115.329L119.486 92.5362C119.508 92.3646 119.411 92.2008 119.253 92.141C117.712 91.5481 113.583 89.724 112.973 88.4239C112.033 86.4192 113.873 79.7925 114.661 77.4094C114.733 77.1935 114.594 76.9556 114.36 76.9244C114.257 76.8178 112.034 76.6631 112.773 74.4243C113.451 72.3688 117.692 73.1827 117.733 73.1905C117.887 73.2243 118.05 73.1502 118.128 73.0071C121.195 67.4544 126.946 58.8658 129.283 59.3976C136.146 61.0071 138.937 86.1773 139.129 87.991C136.563 93.5373 135.787 98.3568 136.756 102.712ZM116.245 116.37L137.368 103.204C137.503 103.119 137.57 102.957 137.533 102.801C136.505 98.5232 137.26 93.7518 139.837 88.212C139.867 88.1522 139.877 88.0846 139.872 88.017C139.758 86.8924 137.041 60.4545 129.449 58.6747C125.942 57.8192 118.903 70.1066 117.614 72.4156C116.57 72.2505 112.856 71.8188 112.075 74.1903C111.516 75.8869 112.262 77.1077 113.838 77.5654C113.283 79.3244 111.186 86.3503 112.308 88.7399C113.078 90.3819 117.478 92.232 118.719 92.7273L115.689 116.006C115.648 116.323 115.993 116.531 116.245 116.37Z" fill="black"/>
<path d="M119.126 92.4868C119.126 92.4868 120.596 93.3371 125.197 91.3388C125.197 91.3388 123.915 96.1077 118.598 97.5508L119.126 92.4868Z" fill="black"/>
<path d="M124.549 92.0055C123.969 93.3056 122.424 95.9059 119.02 97.0331L119.444 92.9715C120.16 93.1145 121.705 93.1314 124.549 92.0055ZM118.692 97.9055C124.15 96.4246 125.497 91.6363 125.551 91.4335C125.632 91.1318 125.331 90.8718 125.051 90.9953C120.759 92.8597 119.314 92.1681 119.298 92.1577C119.064 92.0342 118.784 92.198 118.759 92.445L118.231 97.5077C118.202 97.7651 118.437 97.9718 118.692 97.9055Z" fill="black"/>
<path d="M118.16 83.0171C118.227 82.8234 118.126 82.6128 117.935 82.5452L113.316 80.9174C113.122 80.8524 112.914 80.9525 112.847 81.1462C112.78 81.3399 112.882 81.5506 113.074 81.6182L117.692 83.2446C117.875 83.311 118.092 83.216 118.16 83.0171Z" fill="black"/>
<path d="M121.549 71.2572C121.549 71.98 122.135 72.5586 122.838 72.5586C123.554 72.5586 124.141 71.98 124.141 71.2572C124.141 70.5343 123.554 69.9557 122.838 69.9557C122.135 69.9557 121.549 70.5343 121.549 71.2572Z" fill="black"/>
<path d="M126.695 70.6772C126.894 70.6291 127.015 70.4275 126.966 70.2286C126.063 66.4609 123.152 66.9407 123.128 66.9472C122.927 66.9836 122.794 67.1773 122.83 67.3788C122.866 67.579 123.054 67.7116 123.255 67.6791C123.357 67.6648 125.517 67.341 126.252 70.4028C126.3 70.6082 126.507 70.724 126.695 70.6772Z" fill="black"/>
<path d="M129.644 75.6514C129.644 75.6514 122.921 72.2309 130.233 67.4854C130.233 67.4854 118.952 64.2651 120.772 56.9649C122.654 49.4125 150.301 52.6212 148.66 69.9569C148.66 69.9569 153.362 69.9569 153.286 74.3448C153.177 80.5802 143.636 91.2177 136.817 89.4587C126.397 86.7713 130.126 75.8712 130.126 75.8712L129.644 75.6514Z" fill="black"/>
<path d="M125.944 76.7256C125.944 79.2258 127.953 81.2539 130.43 81.2539C132.908 81.2539 134.9 79.2258 134.9 76.7256C134.9 74.2242 132.908 72.196 130.43 72.196C127.953 72.196 125.944 74.2242 125.944 76.7256Z" fill="white"/>
<path d="M130.433 72.5658C132.695 72.5658 134.535 74.4315 134.535 76.7249C134.535 79.017 132.695 80.8826 130.433 80.8826C128.162 80.8826 126.313 79.017 126.313 76.7249C126.313 74.4315 128.162 72.5658 130.433 72.5658ZM130.433 81.625C133.101 81.625 135.27 79.4265 135.27 76.7249C135.27 74.0219 133.101 71.8247 130.433 71.8247C127.756 71.8247 125.578 74.0219 125.578 76.7249C125.578 79.4265 127.756 81.625 130.433 81.625Z" fill="black"/>
<path d="M151.202 239.83C151.202 239.83 148.415 259.717 162.744 271.449L151.202 239.83Z" fill="white"/>
<path d="M30.5406 157.393C31.142 155.84 31.4473 154.2 31.4473 152.517C31.4473 145.091 25.4637 139.049 18.1072 139.049C15.525 139.049 13.0303 139.792 10.8885 141.2C10.7198 141.311 10.6709 141.542 10.7816 141.713C10.8924 141.884 11.1191 141.934 11.2904 141.821C13.3111 140.494 15.6679 139.792 18.1072 139.792C25.0567 139.792 30.7132 145.5 30.7132 152.517C30.7132 154.106 30.4247 155.656 29.8554 157.122C29.7807 157.313 29.8747 157.529 30.0628 157.603C30.2431 157.676 30.4633 157.59 30.5406 157.393Z" fill="black"/>
<path d="M233.812 27.3516C233.812 27.3516 232.847 14.9862 220.984 19.2713C211.452 -3.89801 190.935 -5.80138 189.155 14.6949C185.008 12.4899 182.939 14.6066 181.44 17.9075C175.943 0.859129 155.907 -5.71688 147.972 14.6949C140.265 8.00324 131.591 14.756 128.779 27.3516" fill="white"/>
<path d="M129.289 27.4687C130.949 20.0373 134.764 14.4936 139.246 12.9972C142.063 12.0559 144.964 12.7813 147.629 15.0955C147.898 15.3283 148.326 15.2334 148.461 14.8875C151.164 7.9332 156.063 2.33493 163.457 2.55465C170.876 2.77697 178.066 9.15791 180.94 18.0728C181.085 18.5265 181.718 18.5734 181.917 18.1287C183.547 14.5417 185.465 13.3313 188.911 15.1631C189.249 15.3386 189.645 15.1137 189.678 14.7406C190.354 6.949 193.813 2.00206 199.165 1.16739C205.409 0.202703 214.753 5.50978 220.498 19.473C220.607 19.7356 220.902 19.8605 221.16 19.7695C224.549 18.546 227.317 18.6123 229.391 19.9671C232.847 22.2254 233.284 27.3427 233.288 27.3934C233.31 27.6872 233.576 27.903 233.852 27.8809C234.141 27.8575 234.358 27.6027 234.334 27.3114C234.317 27.0787 233.848 21.6156 229.962 19.0778C227.7 17.5996 224.779 17.4423 221.277 18.6072C215.296 4.45671 205.561 -0.891964 199.004 0.119526C193.402 0.991903 189.587 6.11694 188.708 13.8864C185.559 12.4849 183.257 13.4392 181.526 16.5582C178.277 7.85129 171.006 1.71998 163.488 1.49506C156.764 1.28184 151.088 5.77891 147.753 13.8279C144.945 11.6294 141.903 10.9898 138.915 11.9909C134.087 13.603 130.005 19.4444 128.265 27.2347C128.201 27.5207 128.38 27.8042 128.662 27.8692C128.935 27.9342 129.225 27.7613 129.289 27.4687Z" fill="black"/>
</svg>
